<svg xmlns="http://www.w3.org/2000/svg" xmlns:xlink="http://www.w3.org/1999/xlink" width="500" zoomAndPan="magnify" viewBox="0 0 375 374.999991" height="500" preserveAspectRatio="xMidYMid meet" version="1.0"><defs><g/><clipPath id="64079c9d52"><path d="M 16.640625 0 L 358.640625 0 L 358.640625 267 L 16.640625 267 Z M 16.640625 0 " clip-rule="nonzero"/></clipPath><clipPath id="2d0b0e9de0"><path d="M 16.640625 123 L 265 123 L 265 375 L 16.640625 375 Z M 16.640625 123 " clip-rule="nonzero"/></clipPath></defs><g clip-path="url(#64079c9d52)"><path fill="#000000" d="M 48.648438 8.8125 C 38.601562 14.578125 30.660156 22.597656 25.128906 32.097656 C 19.601562 41.675781 16.640625 52.582031 16.640625 64.183594 L 16.640625 175.078125 C 16.640625 186.605469 19.601562 197.507812 25.128906 207.085938 C 30.660156 216.585938 38.601562 224.609375 48.648438 230.449219 L 106.976562 264.167969 C 115.699219 269.230469 126.757812 266.269531 131.820312 257.550781 C 136.878906 248.828125 133.921875 237.769531 125.199219 232.707031 L 66.871094 198.988281 L 66.792969 198.988281 C 62.355469 196.417969 58.847656 192.988281 56.589844 189.019531 C 54.332031 185.046875 53.085938 180.296875 53.085938 175.078125 L 53.085938 64.183594 C 53.085938 58.964844 54.332031 54.214844 56.589844 50.320312 L 56.589844 50.242188 C 58.847656 46.273438 62.355469 42.847656 66.871094 40.277344 C 71.308594 37.707031 75.980469 36.460938 80.65625 36.460938 C 85.328125 36.460938 90.078125 37.707031 94.4375 40.277344 L 201.207031 101.953125 L 201.285156 101.953125 L 308.128906 163.554688 C 312.570312 166.125 315.996094 169.550781 318.332031 173.597656 C 320.589844 177.570312 321.835938 182.242188 321.835938 187.539062 C 321.835938 192.445312 320.746094 196.960938 318.796875 200.699219 C 318.644531 200.933594 318.488281 201.167969 318.410156 201.402344 C 316.074219 205.449219 312.570312 208.953125 308.207031 211.445312 C 299.484375 216.429688 296.527344 227.566406 301.511719 236.210938 C 306.492188 244.933594 317.628906 247.894531 326.273438 242.910156 C 336.398438 237.066406 344.417969 229.046875 349.871094 219.625 C 350.105469 219.234375 350.339844 218.84375 350.492188 218.378906 C 355.632812 209.109375 358.359375 198.597656 358.359375 187.460938 C 358.359375 175.933594 355.398438 165.03125 349.871094 155.453125 L 349.871094 155.375 C 344.417969 145.953125 336.398438 137.933594 326.273438 132.089844 L 219.585938 70.492188 L 112.660156 8.8125 C 102.539062 2.972656 91.636719 0.015625 80.65625 0.015625 C 69.75 0.015625 58.847656 2.972656 48.648438 8.8125 Z M 48.648438 8.8125 " fill-opacity="1" fill-rule="evenodd"/></g><g clip-path="url(#2d0b0e9de0)"><path fill="#ff3131" d="M 16.640625 283.792969 L 16.640625 310.816406 C 16.640625 322.34375 19.601562 333.246094 25.128906 342.824219 C 30.660156 352.402344 38.601562 360.421875 48.648438 366.1875 C 49.035156 366.417969 49.425781 366.652344 49.816406 366.808594 C 59.628906 372.261719 70.140625 374.984375 80.65625 374.984375 C 91.558594 374.984375 102.460938 372.027344 112.582031 366.1875 L 232.355469 297.109375 C 242.480469 291.269531 250.5 283.25 255.953125 273.824219 L 255.953125 273.746094 C 261.480469 264.167969 264.441406 253.265625 264.441406 241.742188 C 264.441406 230.214844 261.480469 219.3125 255.953125 209.734375 C 250.421875 200.234375 242.480469 192.210938 232.355469 186.371094 L 126.835938 125.472656 C 123.953125 123.835938 120.917969 123.058594 117.800781 123.058594 C 111.492188 123.058594 105.417969 126.328125 102.070312 132.167969 C 97.085938 140.890625 100.046875 151.949219 108.769531 156.933594 L 214.289062 217.832031 C 218.726562 220.402344 222.234375 223.828125 224.492188 227.800781 C 226.75 231.773438 227.996094 236.523438 227.996094 241.742188 C 227.996094 246.957031 226.75 251.707031 224.492188 255.601562 C 222.15625 259.652344 218.648438 263.15625 214.289062 265.648438 L 94.515625 334.722656 C 90.078125 337.292969 85.40625 338.539062 80.65625 338.539062 C 76.214844 338.539062 71.777344 337.449219 67.570312 335.191406 C 67.335938 335.035156 67.105469 334.878906 66.871094 334.722656 C 62.355469 332.078125 58.847656 328.648438 56.589844 324.757812 C 54.332031 320.785156 53.085938 316.035156 53.085938 310.816406 L 53.085938 283.792969 C 53.085938 273.746094 44.910156 265.570312 34.863281 265.570312 C 24.816406 265.570312 16.640625 273.667969 16.640625 283.792969 Z M 16.640625 283.792969 " fill-opacity="1" fill-rule="evenodd"/></g><g fill="#000000" fill-opacity="1"><g transform="translate(31.78611, 163.091965)"><g><path d="M 2.28125 -2.796875 C 2.28125 -3.890625 2.570312 -4.710938 3.15625 -5.265625 C 3.75 -5.828125 4.601562 -6.109375 5.71875 -6.109375 C 6.800781 -6.109375 7.640625 -5.820312 8.234375 -5.25 C 8.828125 -4.675781 9.125 -3.859375 9.125 -2.796875 C 9.125 -1.765625 8.820312 -0.953125 8.21875 -0.359375 C 7.625 0.234375 6.789062 0.53125 5.71875 0.53125 C 4.625 0.53125 3.773438 0.238281 3.171875 -0.34375 C 2.578125 -0.925781 2.28125 -1.742188 2.28125 -2.796875 Z M 2.28125 -2.796875 "/></g></g></g></svg>