<?xml version="1.0"?>
<svg width="693" height="576.89838" xmlns="http://www.w3.org/2000/svg" xmlns:svg="http://www.w3.org/2000/svg" data-name="Layer 1">
 <g class="layer">
  <title>Layer 1</title>
  <path d="m174.26,575.97l497.38,0a21.69,21.69 0 0 0 21.69,-21.69l0,-287.62a21.35,21.35 0 0 0 -0.76,-5.69a21.68,21.68 0 0 0 -20.93,-16l-194.27,0a60.38,60.38 0 0 0 -8.18,25.01c-2.41,25.69 12.32,49.44 25.5,71.63c13.18,22.19 25.75,47.99 18.77,72.84c-4.72,16.76 -17.51,28.89 -33.38,36.16a93.66,93.66 0 0 1 -48.59,7.4a152.12,152.12 0 0 1 -29.26,-6.68c-12.47,-4.05 -24.65,-9.3 -36.81,-14.61c-0.01,0 -0.01,0 -0.02,-0.01c-0.21,-0.09 -0.43,-0.19 -0.64,-0.28c-9.41,-4.11 -18.81,-8.23 -28.35,-11.86a173.14,173.14 0 0 0 -34.62,-9.54c-17.99,-2.82 -36.13,-1.8 -52.18,6.36c-26.16,13.29 -40.18,42.01 -51.15,69.23c-11.08,27.52 -21.01,55.96 -24.2,85.35z" fill="#0a0c11" id="svg_1"/>
  <path d="m-1.17,465.49l0,88.34a21.69,21.69 0 0 0 21.69,21.69l82.68,0c1.43,-13.33 0.23,-26.61 -5.02,-39c-11.44,-27.02 -39.12,-43 -65.51,-55.83c-11.09,-5.39 -22.37,-10.59 -33.84,-15.2z" fill="#0a0c11" id="svg_2"/>
  <path d="m77.98,554.57l0,0a21.69,21.69 0 0 0 21.69,21.69l82.68,0c1.43,-13.33 0.23,-26.61 -5.02,-39c-2.69,-6.35 -8.98,-13.39 -17.16,-20.49c-32.12,-27.89 -82.19,-4.73 -82.19,37.8z" fill="#0a0c11" id="svg_3"/>
  <path d="m215.64,575.26l29.41,0c5.03,-16.93 12.29,-34.89 18.92,-51.25c12.72,-31.36 28.97,-64.46 59.3,-79.78c12.95,-6.54 27.07,-9.09 41.49,-8.95c19.92,0.19 40.4,5.53 59.15,12.62c7.67,2.89 15.27,6.07 22.84,9.32c28.52,12.26 56.73,25.61 87.4,29.21c38.81,4.57 84.44,-12.8 95.04,-50.2c8.09,-28.63 -6.48,-58.36 -21.76,-83.94c-15.28,-25.57 -32.36,-52.93 -29.57,-82.54c0.01,-0.1 0.02,-0.21 0.04,-0.31c1.05,-10.63 7.4,-18.28 16.27,-23.18l-38.62,0c-0.51,27.62 15.47,52 29.85,76.08c15.28,25.56 29.85,55.3 21.76,83.93c-10.6,37.4 -98.37,-6.43 -137.18,-11.01c-10.96,-1.28 6.45,3.28 -4,0c-16.39,-5.14 -18.21,41.99 -34.16,35.08c-9.93,-4.32 -19.87,-8.6 -29.94,-12.41c-4.17,-1.58 -8.43,-3.06 -12.74,-4.43c-0.01,0 -0.01,0 -0.02,-0.01c-28.94,-9.16 -60.59,-12.73 -87.33,0.52c-0.18,0.09 -0.37,0.18 -0.55,0.27c-30.33,15.3 -46.58,48.4 -59.3,79.77c-10.51,25.93 -21.12,53.86 -26.3,81.21z" fill="#3f3d56" id="svg_5"/>
  <path d="m215.96,369.11l-191.29,0a5.91,5.91 0 1 0 0,11.82l191.29,0a5.91,5.91 0 1 0 0,-11.82z" fill="#3f3d56" id="svg_6"/>
  <path d="m84.11,335.97l-59.31,0a5.91,5.91 0 1 0 0,11.82l59.31,0a5.91,5.91 0 0 0 0,-11.82z" fill="#3f3d56" id="svg_7"/>
  <path d="m429.32,244.93l19,34s-43.79,15 -43.9,12.5s2.18,-37.13 2.18,-37.13l22.72,-9.37z" fill="#e6e6e6" id="svg_25"/>
  <g id="svg_27">
   <path d="m250.78,455.68l53.06,-41.22a10.8,10.91 0 0 0 2.03,-15.17l0,0a10.8,10.91 0 0 0 -15.58,-1.83l-53.82,44.52l-33.82,25.66a9.43,9.52 0 1 0 4.11,11.5l44.01,-23.46z" fill="#ffb6b6" id="svg_12"/>
   <path d="m294.02,465.15l-2.33,52.74l79.43,9.7c-6.24,-21.19 -16.49,-50.62 -11.8,-65.37l-65.3,2.93z" fill="#a0616a" id="svg_13"/>
   <path d="m339.18,368.48l-24.48,0l-10.5,18.15l-5.01,-0.27c-9.76,3.79 -13.65,7.72 -19.03,18.18l0,0l-18.93,16.04l14.59,17.67c10.07,-1.66 13.71,-9.56 10.51,-24.06c0,0 -11.04,19.42 4.86,28.96c0,0 -2.84,18 0,17.81s9.36,-3.86 2.83,-0.2s-5.41,3.82 -5.19,5.01c3.52,19.61 6.44,34.33 6.44,34.33l69.05,6.87s-3.98,-42.16 -3.75,-44.55s-1.24,3.47 0.21,-2.4s3.63,-3.66 1.45,-5.86s14.96,-4.08 8.28,-14.65l22.37,-5.89l-12.51,-29.99c0,-10.13 -16.11,-18.34 -26.15,-18.34l-1.28,0l-13.74,-16.82z" fill="#e6e6e6" id="svg_14"/>
   <path d="m353.7,322.91c2.65,6.67 10.13,19.78 11.14,26.94l-0.45,-0.45a31.99,32.3 0 0 1 -2.97,4.27a20.55,20.74 0 0 0 -6.97,-4.85a24.6,24.84 0 0 1 2.45,9.53c-4.87,4.28 -17.32,1.7 -23.53,3.98c-10,3.67 -20.63,4.97 -31.11,6.06c-3.72,0.38 -7.89,0.62 -10.49,-1.6s-1.06,-6.33 -2.46,-9.44c-10,-22.15 -0.77,-30.14 7.07,-40.19c1.72,-2.21 1.71,-5.51 3.81,-7.62c2.91,-2.92 7.37,-3.82 11.49,-4.54a6.23,6.29 0 0 1 -5.48,-2.74a5.63,5.68 0 0 1 0.08,-5.93c1.47,-2.46 4.53,-3.9 7.48,-4.25a28.41,28.68 0 0 1 8.66,0.75a15.49,15.64 0 0 1 5.25,1.7a4.29,4.33 0 0 1 2.23,4.39a5.56,5.62 0 0 1 -3.29,3.57a14.55,14.69 0 0 1 -3.71,1.03a29.15,29.42 0 0 1 17.1,3.01c6.6,3.55 11.05,9.72 13.71,16.39z" fill="#2f2e41" id="svg_16"/>
   <circle cx="317.99" cy="336.49" fill="#ffb6b6" id="svg_17" r="21.55"/>
   <path d="m340.67,323.73c-1.36,4.17 -5.27,5.52 -8.88,6.35c-1.14,0.27 -2.29,0.52 -3.44,0.75c-0.43,-0.54 -0.88,-1.07 -1.35,-1.57a20.55,20.74 0 0 0 -6.98,-4.84a24.21,24.45 0 0 1 2.25,7.47q-3.28,0.48 -6.58,0.79a7.45,7.52 0 0 1 -8.74,-5.42c-2.01,3.32 -4.39,6.44 -7.63,7.76a9.24,9.33 0 0 1 -10.51,-3.17c-1.94,-2.4 -3.03,-5.62 -3.81,-8.72c-0.91,-3.7 -1.43,-7.95 0.38,-10.3c1.45,-1.89 3.95,-1.92 6.26,-1.76a74.5,75.21 0 0 1 15.04,2.75l0.41,0.94c-0.84,-5.12 0.99,-10.03 4.38,-11.78c2.28,-1.17 5.03,-0.97 7.69,-0.74a35.09,35.42 0 0 1 10.06,1.96a19.31,19.5 0 0 1 9.11,7.34c2.37,3.63 3.55,8.58 2.36,12.18z" fill="#2f2e41" id="svg_18"/>
   <circle cx="270.29" cy="489.71" fill="#fff" id="svg_20" r="63.72"/>
   <path d="m260.78,526.34a7.75,7.82 0 0 1 -6.2,-3.13l-19.02,-25.6a7.75,7.82 0 1 1 12.41,-9.39l12.45,16.74l31.96,-48.39a7.75,7.82 0 1 1 12.9,8.69l-38.03,57.6a7.76,7.83 0 0 1 -6.24,3.49c-0.07,0 -0.15,0 -0.21,0z" fill="#0a0c11" id="svg_22"/>
   <path d="m411.6,492.11l-22.79,-63.56a10.8,10.91 0 0 0 -13.7,-6.56l0,0a10.8,10.91 0 0 0 -6.46,14.43l25.67,65.29l13.95,40.34a9.43,9.52 0 1 0 12.1,-0.48l-8.77,-49.46z" fill="#ffb6b6" id="svg_24"/>
  </g>
 </g>

</svg>